<?xml version="1.0" ?>
<!-- Uploaded to: SVG Repo, www.svgrepo.com, Generator: SVG Repo Mixer Tools -->
<svg fill="#000000" width="800px" height="800px" viewBox="0 0 100 100" enable-background="new 0 0 100 100" id="Layer_1" version="1.1" xml:space="preserve" xmlns="http://www.w3.org/2000/svg" xmlns:xlink="http://www.w3.org/1999/xlink">
<g>
<path d="M83.233,16.931c-0.179-0.31-0.509-0.5-0.866-0.5s-0.688,0.19-0.866,0.5L72.789,32.02c-0.179,0.31-0.179,0.69,0,1   s0.509,0.5,0.866,0.5h17.423c0.357,0,0.688-0.19,0.866-0.5s0.179-0.69,0-1L83.233,16.931z M75.388,31.52l6.979-12.089l6.979,12.089   H75.388z"/>
<path d="M81.367,22.545v3.74c0,0.552,0.447,1,1,1s1-0.448,1-1v-3.74c0-0.552-0.447-1-1-1S81.367,21.993,81.367,22.545z"/>
<path d="M82.367,28.325c-0.553,0-1,0.448-1,1v0.606c0,0.552,0.447,1,1,1s1-0.448,1-1v-0.606   C83.367,28.772,82.92,28.325,82.367,28.325z"/>
<path d="M92.25,12.186H7.75c-2.068,0-3.75,1.678-3.75,3.74v43.76c0,2.062,1.682,3.74,3.75,3.74h11h18.957l-1.196,1.194   c-4.152-1.188-8.552-0.067-11.618,2.999c-2.747,2.747-3.968,6.671-3.267,10.497c0.067,0.366,0.331,0.664,0.687,0.775   c0.354,0.11,0.742,0.015,1.004-0.249l5.339-5.349l6.29,1.005l1.005,6.291l-5.339,5.339c-0.263,0.263-0.358,0.649-0.248,1.004   c0.11,0.354,0.408,0.619,0.773,0.686c0.711,0.131,1.426,0.195,2.136,0.195c3.103,0,6.116-1.225,8.352-3.461   c3.071-3.071,4.193-7.472,3-11.619L52.07,65.3l0.268,0.268c-0.478,0.582-0.75,1.295-0.748,2.056   c0.003,0.865,0.343,1.676,0.953,2.279l1.68,1.68l2.59,2.59c0,0,0.001,0.001,0.001,0.001c0.021,0.021,0.041,0.044,0.064,0.064   l6.242,6.243c0,0,0,0.001,0.001,0.001l2.593,2.593c0,0,0,0,0,0l1.678,1.678c0.634,0.633,1.466,0.949,2.298,0.949   s1.664-0.316,2.297-0.95l3.52-3.52c1.267-1.267,1.267-3.327,0-4.594l-1.669-1.669c-0.003-0.003-0.004-0.008-0.008-0.011   l-2.593-2.593c-0.003-0.003-0.008-0.004-0.011-0.007l-8.889-8.89l-0.043-0.043H81.25h11c2.067,0,3.75-1.678,3.75-3.74v-43.76   C96,13.864,94.317,12.186,92.25,12.186z M57.455,45.709c-1.239-3.587-0.346-7.479,2.332-10.156c1.789-1.79,4.177-2.799,6.653-2.872   l-4.167,4.167c-0.227,0.227-0.331,0.548-0.28,0.865l1.199,7.51c0.068,0.427,0.402,0.762,0.829,0.83l7.511,1.2   c0.313,0.051,0.639-0.054,0.865-0.28l4.167-4.167c-0.072,2.476-1.082,4.864-2.871,6.653c-2.679,2.677-6.571,3.57-10.156,2.332   c-0.363-0.124-0.764-0.033-1.034,0.238l-3.31,3.314c-0.003,0.003-0.008,0.004-0.011,0.008l-4.543,4.551l-0.676-0.676l5.485-5.493   c0.523-0.54,0.812-1.241,0.812-1.977c0-0.75-0.292-1.456-0.822-1.987c-1.101-1.099-2.889-1.097-3.984,0l-5.473,5.472l-0.626-0.626   l7.864-7.873C57.487,46.472,57.58,46.071,57.455,45.709z M58.023,52.329l-5.475,5.481l-1.154-1.154l5.473-5.473   c0.318-0.318,0.839-0.318,1.155,0c0.153,0.153,0.237,0.356,0.237,0.573C58.26,51.968,58.172,52.176,58.023,52.329z M60.308,57.056   h17.307l0.56,1.19H59.12L60.308,57.056z M47.233,55.323l4.61,4.61l2.09,2.09l0.953,0.953l-1.156,1.156l-0.953-0.953l0,0   l-0.089-0.089L29.36,39.762l-0.692-1.848l1.848,0.692L47.233,55.323z M41.932,67.274c-0.316-0.321-0.319-0.837-0.005-1.151   l5.483-5.483l1.155,1.155l-5.477,5.468C42.768,67.581,42.244,67.582,41.932,67.274z M43.956,57.186l-1.062,1.061H21.825l0.56-1.19   h21.441L43.956,57.186z M20.883,60.246h20.006l-1.182,1.18H20.328L20.883,60.246z M42.784,71.749   c-0.271,0.271-0.364,0.671-0.239,1.033c1.237,3.59,0.344,7.482-2.332,10.157c-1.79,1.789-4.177,2.799-6.653,2.871l4.167-4.167   c0.227-0.227,0.331-0.548,0.28-0.865l-1.2-7.51c-0.068-0.427-0.403-0.762-0.83-0.83l-7.51-1.2   c-0.053-0.009-0.105-0.013-0.158-0.013c-0.263,0-0.519,0.104-0.708,0.293l-4.167,4.173c0.072-2.481,1.083-4.871,2.871-6.66   c2.67-2.671,6.561-3.565,10.159-2.332c0.358,0.124,0.761,0.032,1.031-0.239l6.514-6.506c0.003-0.003,0.006-0.006,0.01-0.01   L45.37,58.6l0.626,0.626l-5.484,5.483c-1.087,1.088-1.089,2.869,0.006,3.979c0.547,0.539,1.266,0.809,1.985,0.809   c0.721,0,1.442-0.271,1.993-0.814l5.483-5.474l0.611,0.61l0.065,0.065L42.784,71.749z M53.957,66.733l0.479-0.479   c0,0,0.001-0.001,0.001-0.001l2.569-2.57l0.471-0.471c0.02-0.015,0.037-0.03,0.055-0.046c0.478-0.433,1.192-0.435,1.662-0.003   c0.019,0.017,0.037,0.033,0.057,0.048l0.965,0.965l-5.286,5.286l-0.977-0.977c-0.233-0.23-0.362-0.538-0.363-0.866   C53.589,67.285,53.72,66.971,53.957,66.733z M69.114,73.075l-0.639,0.639l-4.894-4.895l0.639-0.639L69.114,73.075z M71.707,75.667   l-5.286,5.286l-1.179-1.179l1.347-1.347l2.593-2.593l1.346-1.346L71.707,75.667z M58.934,73.466l0.64-0.64l4.894,4.895l-0.64,0.64   L58.934,73.466z M62.171,70.236l4.891,4.891l-1.179,1.179l-4.891-4.891L62.171,70.236z M62.808,66.768l-5.286,5.286l-1.178-1.177   l5.286-5.286L62.808,66.768z M74.093,79.819l-3.52,3.52c-0.487,0.487-1.281,0.485-1.767,0l-0.971-0.971l5.286-5.286l0.972,0.972   c0.236,0.237,0.367,0.55,0.367,0.883S74.329,79.582,74.093,79.819z M60.22,61.426c-0.038-0.027-0.081-0.046-0.12-0.071   c-0.059-0.038-0.119-0.073-0.18-0.107c-0.103-0.057-0.207-0.107-0.314-0.152c-0.062-0.026-0.122-0.052-0.185-0.074   c-0.116-0.041-0.235-0.071-0.354-0.097c-0.055-0.012-0.11-0.029-0.166-0.038c-0.17-0.029-0.341-0.045-0.513-0.046   c-0.006,0-0.012-0.001-0.018-0.001c-0.177,0-0.353,0.017-0.528,0.047c-0.059,0.01-0.116,0.027-0.174,0.04   c-0.116,0.026-0.232,0.055-0.345,0.094c-0.066,0.023-0.13,0.051-0.195,0.078c-0.104,0.044-0.206,0.092-0.306,0.147   c-0.063,0.035-0.125,0.071-0.186,0.11c-0.04,0.026-0.083,0.045-0.122,0.072h-0.349l-0.11-0.11l1.068-1.07h21.995l0.555,1.18H60.22z    M94,59.686c0,0.959-0.785,1.74-1.75,1.74H81.884l-2.729-5.795c-0.165-0.351-0.518-0.575-0.905-0.575H62.305l1.182-1.184   c4.145,1.195,8.546,0.073,11.62-3c2.748-2.748,3.969-6.669,3.266-10.488c-0.067-0.365-0.331-0.663-0.687-0.774   c-0.353-0.109-0.741-0.015-1.004,0.248l-5.339,5.339l-6.291-1.005l-1.004-6.291l5.338-5.339c0.263-0.263,0.358-0.649,0.248-1.004   c-0.11-0.354-0.409-0.619-0.774-0.686c-3.816-0.702-7.739,0.518-10.487,3.267c-3.074,3.073-4.195,7.475-3,11.62l-7.434,7.443   L31.777,37.039c-0.101-0.101-0.222-0.179-0.356-0.229l-4.11-1.54c-0.366-0.136-0.78-0.048-1.058,0.229   c-0.277,0.277-0.367,0.691-0.229,1.058l1.54,4.11c0.05,0.134,0.128,0.255,0.229,0.356l14.033,14.033H21.75   c-0.388,0-0.74,0.224-0.905,0.575l-2.729,5.795H7.75c-0.965,0-1.75-0.78-1.75-1.74v-43.76c0-0.959,0.785-1.74,1.75-1.74h84.5   c0.965,0,1.75,0.78,1.75,1.74V59.686z"/>
<path d="M13.25,18.056H10.5c-0.552,0-1,0.448-1,1s0.448,1,1,1h2.75c0.552,0,1-0.448,1-1S13.802,18.056,13.25,18.056z"/>
<path d="M20.125,18.056h-2.75c-0.552,0-1,0.448-1,1s0.448,1,1,1h2.75c0.552,0,1-0.448,1-1S20.677,18.056,20.125,18.056z"/>
<path d="M27,18.056h-2.75c-0.552,0-1,0.448-1,1s0.448,1,1,1H27c0.552,0,1-0.448,1-1S27.552,18.056,27,18.056z"/>
</g>
</svg>